<?xml version="1.0" standalone="no"?>
<!DOCTYPE svg PUBLIC "-//W3C//DTD SVG 20010904//EN"
 "http://www.w3.org/TR/2001/REC-SVG-20010904/DTD/svg10.dtd">
<svg version="1.0" xmlns="http://www.w3.org/2000/svg"
 width="396.000000pt" height="212.000000pt" viewBox="0 0 396.000000 212.000000"
 preserveAspectRatio="xMidYMid meet">

<g transform="translate(0.000000,212.000000) scale(0.100000,-0.100000)"
fill="#000000" stroke="none">
<path d="M790 2105 c-8 -2 -49 -9 -90 -15 -280 -45 -502 -186 -600 -381 -47
-92 -64 -164 -64 -274 -1 -170 41 -281 145 -383 109 -108 204 -152 472 -218
100 -25 226 -56 280 -69 54 -14 118 -33 142 -44 83 -37 96 -122 26 -164 -43
-25 -172 -40 -276 -32 -184 14 -342 55 -508 133 -53 25 -99 43 -100 41 -7 -8
-206 -464 -209 -478 -4 -19 124 -83 255 -126 366 -119 842 -121 1123 -4 320
133 484 416 419 724 -8 38 -26 93 -40 121 -32 66 -160 188 -240 230 -80 42
-221 88 -369 120 -296 64 -340 75 -382 93 -91 41 -93 135 -2 183 40 21 55 23
203 23 143 -1 170 -3 260 -28 55 -15 136 -44 180 -63 44 -20 88 -37 98 -38 16
-1 37 43 118 238 54 131 99 241 99 243 0 8 -148 72 -215 92 -184 57 -351 81
-555 80 -85 -1 -162 -3 -170 -4z"/>
<path d="M2880 2105 c-8 -2 -49 -9 -90 -15 -160 -26 -345 -103 -480 -198 -148
-105 -282 -279 -346 -452 -44 -117 -64 -236 -64 -387 0 -300 100 -546 302
-738 129 -125 252 -197 428 -253 131 -42 231 -56 395 -56 286 1 594 80 801
207 l69 43 3 427 2 427 -295 0 -295 0 0 -254 0 -254 -47 -16 c-113 -37 -277
-39 -381 -3 -233 80 -353 359 -278 644 43 163 182 293 345 323 190 36 369 -15
509 -145 l68 -63 218 191 218 192 -79 75 c-92 89 -141 124 -249 178 -178 91
-318 122 -559 127 -99 2 -187 2 -195 0z"/>
</g>
</svg>
